<svg width="15" height="20" viewBox="0 0 15 20" fill="none" xmlns="http://www.w3.org/2000/svg">
<path d="M2.27726 19.3078C1.81366 19.3078 1.42125 19.1328 1.10001 18.7828C0.778781 18.4328 0.618164 18.0052 0.618164 17.5001V5.55784C0.618164 5.34502 0.684055 5.16682 0.815837 5.02324C0.947619 4.87965 1.11117 4.80786 1.3065 4.80786C1.50182 4.80786 1.66538 4.87965 1.79716 5.02324C1.92895 5.16682 1.99485 5.34502 1.99485 5.55784V17.5001C1.99485 17.577 2.02427 17.6475 2.0831 17.7116C2.14193 17.7757 2.20665 17.8078 2.27726 17.8078H10.4845C10.6798 17.8078 10.8434 17.8796 10.9752 18.0232C11.107 18.1667 11.1729 18.3449 11.1729 18.5578C11.1729 18.7706 11.107 18.9488 10.9752 19.0924C10.8434 19.236 10.6798 19.3078 10.4845 19.3078H2.27726ZM5.48957 15.8078C5.02595 15.8078 4.63353 15.6328 4.3123 15.2828C3.99108 14.9328 3.83047 14.5052 3.83047 14.0001V2.61554C3.83047 2.11042 3.99108 1.68286 4.3123 1.33286C4.63353 0.982861 5.02595 0.807861 5.48957 0.807861H13.185C13.6486 0.807861 14.041 0.982861 14.3622 1.33286C14.6835 1.68286 14.8441 2.11042 14.8441 2.61554V14.0001C14.8441 14.5052 14.6835 14.9328 14.3622 15.2828C14.041 15.6328 13.6486 15.8078 13.185 15.8078H5.48957ZM5.48957 14.3078H13.185C13.2556 14.3078 13.3203 14.2758 13.3792 14.2117C13.438 14.1476 13.4674 14.077 13.4674 14.0001V2.61554C13.4674 2.5386 13.438 2.46809 13.3792 2.40399C13.3203 2.33989 13.2556 2.30784 13.185 2.30784H5.48957C5.41896 2.30784 5.35424 2.33989 5.29541 2.40399C5.23656 2.46809 5.20714 2.5386 5.20714 2.61554V14.0001C5.20714 14.077 5.23656 14.1476 5.29541 14.2117C5.35424 14.2758 5.41896 14.3078 5.48957 14.3078Z" fill="#585858"/>
</svg>
