<svg width="17" height="20" viewBox="0 0 17 20" fill="none" xmlns="http://www.w3.org/2000/svg">
<path d="M2.75006 19.3075C2.24494 19.3075 1.81738 19.1325 1.46738 18.7825C1.11738 18.4325 0.942383 18.005 0.942383 17.4998V5.55759C0.942383 5.34478 1.01417 5.16658 1.15776 5.02299C1.30134 4.87941 1.47954 4.80762 1.69236 4.80762C1.90517 4.80762 2.08337 4.87941 2.22696 5.02299C2.37056 5.16658 2.44236 5.34478 2.44236 5.55759V17.4998C2.44236 17.5768 2.47441 17.6473 2.53851 17.7114C2.60261 17.7755 2.67312 17.8075 2.75006 17.8075H11.6923C11.9051 17.8075 12.0833 17.8793 12.2269 18.0229C12.3705 18.1665 12.4423 18.3447 12.4423 18.5575C12.4423 18.7703 12.3705 18.9485 12.2269 19.0921C12.0833 19.2357 11.9051 19.3075 11.6923 19.3075H2.75006ZM6.25003 15.8075C5.7449 15.8075 5.31733 15.6325 4.96733 15.2825C4.61735 14.9325 4.44236 14.505 4.44236 13.9999V2.61529C4.44236 2.11018 4.61735 1.68262 4.96733 1.33262C5.31733 0.982617 5.7449 0.807617 6.25003 0.807617H14.6346C15.1397 0.807617 15.5673 0.982617 15.9173 1.33262C16.2673 1.68262 16.4423 2.11018 16.4423 2.61529V13.9999C16.4423 14.505 16.2673 14.9325 15.9173 15.2825C15.5673 15.6325 15.1397 15.8075 14.6346 15.8075H6.25003ZM6.25003 14.3076H14.6346C14.7115 14.3076 14.782 14.2755 14.8462 14.2114C14.9103 14.1473 14.9423 14.0768 14.9423 13.9999V2.61529C14.9423 2.53836 14.9103 2.46784 14.8462 2.40374C14.782 2.33964 14.7115 2.30759 14.6346 2.30759H6.25003C6.1731 2.30759 6.10258 2.33964 6.03848 2.40374C5.97437 2.46784 5.94231 2.53836 5.94231 2.61529V13.9999C5.94231 14.0768 5.97437 14.1473 6.03848 14.2114C6.10258 14.2755 6.1731 14.3076 6.25003 14.3076Z" fill="black"/>
</svg>
