<svg width="23" height="19" viewBox="0 0 23 19" fill="none" xmlns="http://www.w3.org/2000/svg">
<path d="M18.2769 18.3999L11.3923 11.5153H10.8922C10.4358 12.4153 9.77173 13.1377 8.89995 13.6826C8.02815 14.2274 7.06148 14.4999 5.99995 14.4999C4.47432 14.4999 3.17625 13.9646 2.10575 12.8941C1.03525 11.8236 0.5 10.5255 0.5 8.99991C0.5 7.86786 0.8141 6.84991 1.4423 5.94606C2.07052 5.04221 2.88591 4.39734 3.88848 4.01146L1.59998 1.72296C1.45511 1.57809 1.38268 1.40503 1.38268 1.20376C1.38268 1.00248 1.45511 0.824276 1.59998 0.669159C1.75511 0.520442 1.93332 0.444476 2.1346 0.441259C2.33587 0.438059 2.51407 0.514026 2.6692 0.669159L19.3307 17.3461C19.4692 17.4845 19.5426 17.656 19.5509 17.8605C19.5592 18.0649 19.4858 18.2448 19.3307 18.3999C19.1858 18.5448 19.0102 18.6172 18.8038 18.6172C18.5974 18.6172 18.4218 18.5448 18.2769 18.3999ZM22.0172 8.99991C22.0172 9.12043 21.998 9.2326 21.9595 9.33643C21.9211 9.44028 21.855 9.539 21.7615 9.63258L19.1153 12.2691C19.0217 12.3627 18.9221 12.4313 18.8163 12.4749C18.7105 12.5185 18.616 12.5403 18.5326 12.5403C18.3993 12.5403 18.2907 12.5278 18.2067 12.5028C18.1227 12.4778 18.0339 12.4351 17.9404 12.3749L15.9231 10.4634L15.5577 10.7326L15.3654 10.5403L16.7019 9.56723L18.4154 10.8499L20.2807 8.99991L19.2807 7.99991H12.825L11.325 6.49993H19.5173C19.6378 6.49993 19.7525 6.52173 19.8615 6.56533C19.9705 6.60892 20.0717 6.67751 20.1653 6.77111L21.7615 8.36723C21.855 8.46082 21.9211 8.55953 21.9595 8.66338C21.998 8.76722 22.0172 8.87939 22.0172 8.99991ZM5.99995 12.9999C6.84995 12.9999 7.61854 12.7579 8.30573 12.2739C8.99291 11.79 9.47688 11.1396 9.75765 10.323H10.2L5.06153 5.18451C4.14229 5.36913 3.40222 5.82586 2.8413 6.55471C2.2804 7.28356 1.99995 8.09863 1.99995 8.99991C1.99995 10.0999 2.39162 11.0416 3.17495 11.8249C3.95828 12.6082 4.89995 12.9999 5.99995 12.9999ZM5.99995 10.6153C5.55252 10.6153 5.17143 10.4579 4.8567 10.1432C4.54197 9.82843 4.3846 9.44734 4.3846 8.99991C4.3846 8.55248 4.54197 8.17139 4.8567 7.85666C5.17143 7.54193 5.55252 7.38456 5.99995 7.38456C6.44738 7.38456 6.82847 7.54193 7.1432 7.85666C7.45793 8.17139 7.6153 8.55248 7.6153 8.99991C7.6153 9.44734 7.45793 9.82843 7.1432 10.1432C6.82847 10.4579 6.44738 10.6153 5.99995 10.6153Z" fill="black"/>
</svg>
