<svg width="20" height="18" viewBox="0 0 20 18" fill="none" xmlns="http://www.w3.org/2000/svg">
<path d="M8.90385 11.75H15C15.2128 11.75 15.391 11.6782 15.5346 11.5346C15.6782 11.391 15.75 11.2128 15.75 11C15.75 10.7872 15.6782 10.609 15.5346 10.4654C15.391 10.3218 15.2128 10.25 15 10.25H10.4038L8.90385 11.75ZM4.90385 11.75H5.99227C6.11279 11.75 6.22498 11.724 6.32882 11.6721C6.43266 11.6202 6.53138 11.5557 6.62498 11.4788L12.1384 6.01535C12.232 5.92177 12.2788 5.81279 12.2788 5.68842C12.2788 5.56407 12.232 5.4551 12.1384 5.3615L10.8308 4.05385C10.7372 3.96027 10.6282 3.91348 10.5039 3.91348C10.3795 3.91348 10.2705 3.96027 10.1769 4.05385L4.71348 9.5673C4.63654 9.6609 4.57212 9.75962 4.5202 9.86345C4.46828 9.9673 4.44233 10.0795 4.44233 10.2V11.2884C4.44233 11.4153 4.48752 11.524 4.5779 11.6144C4.66828 11.7048 4.77693 11.75 4.90385 11.75ZM0.5 16.8538V2.3077C0.5 1.80257 0.675 1.375 1.025 1.025C1.375 0.675 1.80257 0.5 2.3077 0.5H17.6923C18.1974 0.5 18.625 0.675 18.975 1.025C19.325 1.375 19.5 1.80257 19.5 2.3077V13.6922C19.5 14.1974 19.325 14.625 18.975 14.975C18.625 15.325 18.1974 15.5 17.6923 15.5H4.03845L2.03655 17.5019C1.75193 17.7864 1.42469 17.8509 1.05483 17.6951C0.684942 17.5393 0.5 17.2589 0.5 16.8538ZM1.99998 15.4154L3.41538 14H17.6923C17.782 14 17.8557 13.9711 17.9134 13.9134C17.9711 13.8557 18 13.782 18 13.6922V2.3077C18 2.21795 17.9711 2.14423 17.9134 2.08652C17.8557 2.02882 17.782 1.99997 17.6923 1.99997H2.3077C2.21795 1.99997 2.14423 2.02882 2.08653 2.08652C2.02883 2.14423 1.99998 2.21795 1.99998 2.3077V15.4154ZM1.99998 2.3077V1.99997V15.4154V2.3077Z" fill="black"/>
</svg>
