<svg width="19" height="18" viewBox="0 0 19 18" fill="none" xmlns="http://www.w3.org/2000/svg">
<path d="M6.78605 14.405C6.78605 14.4783 6.70554 14.5369 6.60404 14.5369C6.48853 14.5479 6.40803 14.4893 6.40803 14.405C6.40803 14.3318 6.48853 14.2732 6.59004 14.2732C6.69504 14.2622 6.78605 14.3208 6.78605 14.405ZM5.69749 14.2402C5.67299 14.3135 5.74299 14.3977 5.848 14.4197C5.939 14.4563 6.04401 14.4197 6.06501 14.3464C6.08601 14.2732 6.01951 14.189 5.9145 14.156C5.8235 14.1304 5.72199 14.167 5.69749 14.2402ZM7.24457 14.178C7.14306 14.2036 7.07306 14.2732 7.08356 14.3574C7.09406 14.4307 7.18507 14.4783 7.29007 14.4526C7.39158 14.427 7.46158 14.3574 7.45108 14.2842C7.44058 14.2146 7.34607 14.167 7.24457 14.178ZM9.54769 0.144775C4.69294 0.144775 0.979248 4.00098 0.979248 9.08032C0.979248 13.1416 3.42237 16.6169 6.91205 17.8401C7.36007 17.9243 7.51758 17.635 7.51758 17.397C7.51758 17.1699 7.50708 15.9175 7.50708 15.1484C7.50708 15.1484 5.05696 15.6978 4.54243 14.0571C4.54243 14.0571 4.14341 12.9915 3.56938 12.7168C3.56938 12.7168 2.76784 12.1418 3.62538 12.1528C3.62538 12.1528 4.49693 12.2261 4.97645 13.0977C5.74299 14.5112 7.02756 14.1047 7.52808 13.863C7.60859 13.2771 7.8361 12.8706 8.08811 12.6289C6.13151 12.4019 4.15741 12.1052 4.15741 8.58228C4.15741 7.5752 4.42342 7.06982 4.98345 6.42529C4.89245 6.18726 4.59493 5.20581 5.07446 3.93872C5.806 3.70068 7.48958 4.92749 7.48958 4.92749C8.18962 4.72241 8.94216 4.61621 9.68769 4.61621C10.4332 4.61621 11.1858 4.72241 11.8858 4.92749C11.8858 4.92749 13.5694 3.69702 14.3009 3.93872C14.7805 5.20947 14.4829 6.18726 14.3919 6.42529C14.952 7.07349 15.295 7.57886 15.295 8.58228C15.295 12.1162 13.2334 12.3982 11.2768 12.6289C11.5988 12.9182 11.8718 13.4675 11.8718 14.3281C11.8718 15.5623 11.8613 17.0894 11.8613 17.3896C11.8613 17.6277 12.0223 17.917 12.4668 17.8328C15.967 16.6169 18.3401 13.1416 18.3401 9.08032C18.3401 4.00098 14.4024 0.144775 9.54769 0.144775ZM4.38142 12.7754C4.33592 12.812 4.34642 12.8962 4.40592 12.9658C4.46193 13.0244 4.54243 13.05 4.58793 13.0024C4.63344 12.9658 4.62293 12.8816 4.56343 12.812C4.50743 12.7534 4.42692 12.7278 4.38142 12.7754ZM4.0034 12.4788C3.9789 12.5264 4.0139 12.585 4.08391 12.6216C4.13991 12.6582 4.20991 12.6472 4.23441 12.5959C4.25892 12.5483 4.22391 12.4897 4.15391 12.4531C4.08391 12.4312 4.0279 12.4421 4.0034 12.4788ZM5.13746 13.7825C5.08146 13.8301 5.10246 13.9399 5.18296 14.0095C5.26347 14.0938 5.36497 14.1047 5.41047 14.0461C5.45598 13.9985 5.43498 13.8887 5.36497 13.8191C5.28797 13.7349 5.18296 13.7239 5.13746 13.7825ZM4.73844 13.2441C4.68244 13.2808 4.68244 13.376 4.73844 13.4602C4.79444 13.5444 4.88895 13.5811 4.93445 13.5444C4.99045 13.4968 4.99045 13.4016 4.93445 13.3174C4.88545 13.2332 4.79444 13.1965 4.73844 13.2441Z" fill="black"/>
</svg>
