<svg width="17" height="18" viewBox="0 0 17 18" fill="none" xmlns="http://www.w3.org/2000/svg">
<path d="M14.9008 0.796875H1.45665C0.840613 0.796875 0.340088 1.32788 0.340088 1.97974V16.0203C0.340088 16.6721 0.840613 17.2031 1.45665 17.2031H14.9008C15.5169 17.2031 16.0209 16.6721 16.0209 16.0203V1.97974C16.0209 1.32788 15.5169 0.796875 14.9008 0.796875ZM5.07933 14.8594H2.75521V7.02979H5.08283V14.8594H5.07933ZM3.91727 5.96045C3.17173 5.96045 2.5697 5.3269 2.5697 4.55054C2.5697 3.77417 3.17173 3.14062 3.91727 3.14062C4.65931 3.14062 5.26484 3.77417 5.26484 4.55054C5.26484 5.33057 4.66281 5.96045 3.91727 5.96045ZM13.7913 14.8594H11.4672V11.0508C11.4672 10.1426 11.4497 8.97437 10.2596 8.97437C9.04853 8.97437 8.86302 9.96314 8.86302 10.9849V14.8594H6.53891V7.02979H8.76852V8.09912H8.80002C9.11154 7.48389 9.87108 6.83569 11.0016 6.83569C13.3538 6.83569 13.7913 8.45801 13.7913 10.5674V14.8594Z" fill="black"/>
</svg>
